<svg width="220" height="50" viewBox="0 0 220 50" fill="none" xmlns="http://www.w3.org/2000/svg">
<g clip-path="url(#clip0_14_158)">
<path d="M48.3071 32.747C47.5754 33.0655 46.8319 33.3577 46.0881 33.6429C45.3142 33.9382 44.5363 34.2175 43.7503 34.4804C42.9844 34.7363 42.2206 34.9813 41.4446 35.206C40.705 35.4215 39.9635 35.6272 39.2137 35.8094C39.1452 35.8276 39.0767 35.8489 39.0081 35.867C38.2804 36.0433 37.5429 36.1884 36.8073 36.3355C36.7749 36.3194 36.7427 36.3012 36.7085 36.2862C36.6358 36.2509 36.5694 36.2125 36.4949 36.1782C36.2086 36.0383 35.9224 35.8932 35.6403 35.7461C35.2232 35.5325 34.8059 35.3187 34.3969 35.0941C34.0784 34.9187 33.7621 34.7324 33.4455 34.5499C33.3811 34.5097 33.3146 34.4734 33.248 34.4339C33.371 34.4168 33.4979 34.3947 33.6209 34.3766C33.9272 34.3301 34.2375 34.2818 34.5419 34.2315C34.83 34.183 35.1204 34.1479 35.4065 34.0934C35.9909 33.9876 36.5673 33.8536 37.1437 33.7286C37.3251 33.6893 37.5065 33.6541 37.6879 33.6128C37.7445 33.6006 37.8008 33.5886 37.8572 33.5765C38.4538 33.4405 39.0504 33.2832 39.6388 33.127C39.8726 33.0646 40.1023 33.0021 40.3362 32.9375C41.1142 32.719 41.8861 32.481 42.6499 32.2311C43.4419 31.9723 44.2299 31.6962 45.0079 31.4019C45.7556 31.1187 46.5013 30.8265 47.237 30.512C46.8802 29.7967 46.5074 29.0902 46.1223 28.3888C45.3788 28.7033 44.6329 28.9945 43.8753 29.2727C43.0892 29.5657 42.2951 29.8379 41.497 30.0928C41.1282 30.2088 40.7615 30.3337 40.3946 30.4434C40.2414 30.4878 40.0862 30.5252 39.931 30.5685C39.6691 30.643 39.405 30.7126 39.141 30.7831C38.5789 30.9332 38.0186 31.0845 37.4502 31.2163C37.1761 31.2799 36.9021 31.3333 36.6239 31.3938C36.5613 31.4058 36.4988 31.42 36.4344 31.433C35.9224 31.5439 35.4085 31.6578 34.8926 31.7515C34.6307 31.8018 34.3686 31.8342 34.1026 31.8776C33.5484 31.9702 32.9962 32.066 32.4418 32.1395C32.4076 32.1454 32.3733 32.1527 32.3391 32.1566C31.5794 32.2565 30.8154 32.3289 30.0537 32.3964C30.0114 32.3663 29.969 32.3341 29.9247 32.3037C29.703 32.1475 29.4814 31.9814 29.2616 31.821C28.7376 31.44 28.2196 31.0481 27.7098 30.6471C27.5586 30.5272 27.4094 30.4032 27.2603 30.2792C27.1856 30.2189 27.1111 30.1593 27.0346 30.0988C27.1877 30.0928 27.3369 30.0827 27.49 30.0767C27.5868 30.0726 27.6795 30.0666 27.7784 30.0616C28.5884 30.0233 29.3986 29.9669 30.2047 29.8893C30.5857 29.854 30.9687 29.8167 31.3495 29.7723C31.7627 29.722 32.1758 29.6677 32.5911 29.6072C32.6354 29.601 32.6777 29.5919 32.72 29.588C33.5282 29.4691 34.3343 29.334 35.1324 29.1769C35.1365 29.1769 35.1404 29.1738 35.1446 29.1738C35.1648 29.1707 35.1848 29.1658 35.205 29.1608C36.0272 28.9994 36.8515 28.8191 37.6597 28.6166C37.702 28.6034 37.7445 28.5925 37.7847 28.5824C38.2301 28.4684 38.6715 28.3475 39.1109 28.2216C39.4413 28.1298 39.7719 28.0433 40.0964 27.9434C40.1286 27.9323 40.1589 27.9232 40.1911 27.9122C41.0034 27.6623 41.8134 27.3963 42.6135 27.1059C42.7365 27.0636 42.8554 27.0104 42.9763 26.966C43.4681 26.7846 43.9579 26.591 44.4437 26.3925C44.5888 26.3351 44.7398 26.2817 44.8828 26.2222C44.6552 25.8464 44.4154 25.4776 44.1816 25.1068C44.4154 24.7349 44.6531 24.364 44.8769 23.9872C44.9796 23.8169 45.0723 23.6425 45.1751 23.4692C45.4956 22.9231 45.82 22.375 46.1244 21.8186C46.5074 21.1142 46.8661 20.3979 47.2209 19.6813C47.5876 18.9386 47.9382 18.1888 48.2748 17.432C48.5993 16.7025 50.4212 12.2744 50.722 10.1685C49.9904 9.85417 49.3016 9.84891 48.5559 9.56679C48.2616 10.3075 46.3803 15.8048 46.0559 16.5333C45.7193 17.289 45.3645 18.0377 44.9957 18.7795C44.6371 19.4999 44.2683 20.2165 43.8772 20.9219C43.5084 21.5949 43.1276 22.267 42.7305 22.9241C42.6922 22.9875 42.6579 23.051 42.6216 23.1136C42.2346 23.7494 41.8155 24.3731 41.4044 24.9949C41.366 25.0089 41.3278 25.019 41.2894 25.0323C41.217 25.0574 41.1404 25.0806 41.0639 25.1057C40.7615 25.2106 40.4592 25.3074 40.1548 25.407C39.7073 25.5492 39.264 25.6943 38.8125 25.8252C38.4639 25.9261 38.1092 26.0167 37.7585 26.1114C37.6859 26.1296 37.6134 26.1498 37.5408 26.1688C37.6155 26.0701 37.6859 25.9684 37.7585 25.8677C37.9459 25.6177 38.1273 25.3668 38.3067 25.1127C38.4759 24.874 38.6573 24.6432 38.8247 24.4045C39.1592 23.9158 39.4735 23.4149 39.792 22.9181C39.8929 22.7629 39.9936 22.6096 40.0943 22.4525C40.1267 22.403 40.1589 22.3547 40.1911 22.3054C40.5137 21.7853 40.8238 21.2574 41.1324 20.7283C41.2512 20.5196 41.3722 20.3122 41.489 20.1025C41.8861 19.3961 42.265 18.6827 42.6278 17.9622C43.0046 17.2195 43.3674 16.4707 43.71 15.7129C44.0365 14.9823 44.357 14.2499 44.6531 13.5072C43.8933 13.2541 43.1315 13.0185 42.3657 12.7937C42.0615 13.5404 41.7368 14.2761 41.4044 15.0067C41.0556 15.7715 40.6829 16.5252 40.2998 17.2708C40.1205 17.6126 39.9533 17.9581 39.7699 18.2988C39.6892 18.4379 39.6087 18.5729 39.5301 18.7109C39.3969 18.9507 39.2581 19.1864 39.1229 19.4233C38.8327 19.9261 38.5425 20.4301 38.2322 20.9237C38.0871 21.1645 37.9257 21.3973 37.7746 21.6332C37.7404 21.6877 37.704 21.743 37.6677 21.7985C37.3817 22.2379 37.1014 22.6802 36.8032 23.1136C36.654 23.3321 36.4889 23.5428 36.3337 23.7595C36.0072 24.216 35.6846 24.6744 35.3441 25.1189C35.3239 25.1491 35.3037 25.1763 35.2837 25.2046C34.8201 25.8091 34.3323 26.3997 33.8386 26.9891C33.7862 26.9961 33.7338 27.0042 33.6814 27.0122C33.4094 27.0597 33.1371 27.0979 32.8672 27.1412C32.2303 27.2421 31.5875 27.3348 30.9405 27.4093C30.7489 27.4306 30.5574 27.4477 30.3641 27.4677C30.2714 27.4778 30.1746 27.49 30.0778 27.498C30.1806 27.3862 30.2813 27.2743 30.3843 27.1625C30.4487 27.0919 30.5112 27.0195 30.5777 26.9499C31.1237 26.3473 31.656 25.7356 32.1698 25.1109C32.4136 24.8145 32.6596 24.5182 32.8973 24.2179C33.1553 23.8895 33.4073 23.5579 33.6593 23.2234C33.6834 23.187 33.7117 23.1507 33.7358 23.1156C34.2256 22.4616 34.6971 21.7965 35.1505 21.1204C35.1526 21.1194 35.1547 21.1163 35.1586 21.1132C35.1687 21.0952 35.1809 21.076 35.1928 21.0568C35.6584 20.3605 36.1118 19.6541 36.5432 18.9367C36.5634 18.8994 36.5836 18.862 36.6057 18.8267C36.8416 18.4307 37.0672 18.0307 37.2909 17.6306C37.4562 17.3344 37.6295 17.0391 37.7868 16.7388C37.805 16.7105 37.819 16.6804 37.833 16.6521C38.2322 15.8995 38.615 15.1406 38.9778 14.3688C39.0302 14.2499 39.0806 14.1279 39.1351 14.0099C39.3528 13.5344 39.5623 13.0527 39.7657 12.569C39.8283 12.4229 39.8968 12.2827 39.9573 12.1377C39.5321 12.032 39.1008 11.9412 38.6715 11.8454C38.5747 11.4172 38.48 10.9879 38.3731 10.5616C38.3248 10.3692 38.2685 10.1777 38.2179 9.98535C38.0567 9.36952 37.8976 8.75576 37.7183 8.14509C37.4904 7.37633 37.2384 6.61646 36.9825 5.85678C36.7186 5.07276 36.4383 4.29575 36.1381 3.52493C35.8539 2.77929 35.5598 2.03758 35.2432 1.30288C34.5056 1.60027 33.7701 1.91066 33.0424 2.23715C33.3569 2.96958 33.6471 3.71129 33.9354 4.45693C34.2315 5.23002 34.5097 6.00785 34.7737 6.79291C35.0277 7.55877 35.2756 8.3236 35.4993 9.1004C35.7129 9.83923 35.9205 10.5807 36.1019 11.3305C36.1199 11.399 36.1401 11.4686 36.1603 11.5371C36.3356 12.2646 36.4788 12.9982 36.6259 13.7309C36.6117 13.7662 36.5917 13.8004 36.5756 13.8357C36.5411 13.9081 36.5029 13.9777 36.4687 14.0493C36.3275 14.3356 36.1824 14.6197 36.0353 14.9039C35.8217 15.321 35.6101 15.7381 35.3864 16.1484C35.205 16.4678 35.0216 16.7821 34.8402 17.0956C34.804 17.1621 34.7657 17.2275 34.7273 17.2921C34.7112 17.167 34.687 17.0471 34.6689 16.9223C34.6245 16.6158 34.5762 16.3095 34.5238 16.0033C34.4755 15.7139 34.4392 15.4238 34.3867 15.1357C34.278 14.5541 34.149 13.9798 34.0219 13.4013C33.9837 13.2199 33.9474 13.0395 33.9051 12.8581C33.8929 12.8018 33.883 12.7444 33.8687 12.6858C33.7317 12.0894 33.5765 11.4969 33.4174 10.9054C33.3549 10.6726 33.2944 10.4398 33.23 10.2089C33.0102 9.42999 32.7745 8.65814 32.5226 7.89021C32.2646 7.09917 31.9884 6.31412 31.6942 5.53732C31.412 4.78961 31.1198 4.0448 30.8034 3.30928C30.09 3.66507 29.3805 4.03676 28.6813 4.42185C28.9956 5.16336 29.2878 5.91416 29.566 6.66785C29.8582 7.456 30.1282 8.2489 30.3843 9.04902C30.5032 9.41699 30.626 9.78269 30.7368 10.1535C30.7812 10.3056 30.8154 10.4598 30.8598 10.6111C30.9345 10.874 31.0049 11.1411 31.0734 11.405C31.2267 11.9664 31.3757 12.5277 31.5068 13.093C31.5753 13.3681 31.6256 13.6452 31.6861 13.9183C31.6983 13.9839 31.7144 14.0462 31.7264 14.1108C31.8333 14.6247 31.9521 15.1357 32.0469 15.6506C32.0933 15.9135 32.1255 16.1795 32.1699 16.4406C32.2646 16.9937 32.3593 17.5459 32.4338 18.1052C32.438 18.1385 32.446 18.1717 32.4481 18.2059C32.5488 18.9619 32.6212 19.7247 32.6879 20.4874C32.6596 20.5318 32.6253 20.5741 32.5931 20.6185C32.438 20.8422 32.2726 21.0618 32.1115 21.2845C31.7284 21.8076 31.3394 22.3254 30.9405 22.8354C30.8154 22.9875 30.6926 23.1346 30.5735 23.2838C30.5112 23.3594 30.4507 23.4341 30.3923 23.5086C30.3843 23.3565 30.3742 23.2052 30.368 23.0541C30.3641 22.9594 30.3599 22.8647 30.354 22.7689C30.3156 21.9566 30.2592 21.1474 30.1806 20.3393C30.1464 19.9585 30.1082 19.5775 30.0638 19.1965C30.0174 18.7815 29.9569 18.3673 29.8985 17.9542C29.8944 17.9098 29.8863 17.8675 29.8824 17.8231C29.7615 17.016 29.6265 16.2128 29.4692 15.4126C29.4692 15.4087 29.4672 15.4056 29.4692 15.4027C29.4651 15.3804 29.4571 15.3594 29.4531 15.3371C29.2899 14.5149 29.1106 13.6966 28.9069 12.8843C28.8949 12.8441 28.8848 12.8018 28.8726 12.7626C28.7618 12.316 28.6388 11.8737 28.5119 11.4323C28.4213 11.1029 28.3325 10.7723 28.2339 10.4478C28.2277 10.4165 28.2136 10.3853 28.2035 10.3541C27.9536 9.53978 27.6876 8.73161 27.4013 7.93251C27.3551 7.81054 27.3027 7.69374 27.2604 7.57073C27.0749 7.07811 26.8835 6.58921 26.684 6.10051C26.6235 5.95543 26.575 5.80621 26.5147 5.6601C26.1377 5.88794 25.7689 6.12981 25.398 6.3655C25.0253 6.13084 24.6565 5.89496 24.2795 5.66918C24.1102 5.56641 23.935 5.47374 23.7635 5.37303C23.2154 5.0515 22.6693 4.72707 22.109 4.42267C21.4057 4.03984 20.6902 3.68219 19.9726 3.32743C19.227 2.95966 18.4813 2.60882 17.7215 2.27326C16.994 1.9478 12.1115 0.294295 11.3718 0C11.0594 0.732639 10.6915 1.66193 10.4091 2.40674C11.1488 2.70082 16.095 4.16387 16.8245 4.48829C17.5803 4.82675 18.33 5.17842 19.0718 5.54927C19.7933 5.91002 20.5088 6.27799 21.2162 6.6668C21.8892 7.03869 22.5585 7.4176 23.2175 7.81673C23.2779 7.85285 23.3423 7.88525 23.4048 7.9224C24.0438 8.31348 24.6646 8.72975 25.2872 9.14373C25.3014 9.18005 25.3114 9.21741 25.3256 9.25559C25.3518 9.3303 25.3739 9.40686 25.4001 9.48137C25.5029 9.78268 25.6017 10.0881 25.6983 10.3902C25.8436 10.8358 25.9887 11.2812 26.1156 11.7315C26.2184 12.0813 26.309 12.435 26.4037 12.7857C26.4219 12.8602 26.4421 12.9328 26.4623 13.0063C26.3595 12.9307 26.2607 12.8591 26.1579 12.7846C25.908 12.6001 25.656 12.4179 25.4042 12.2365C25.1663 12.0671 24.9366 11.8867 24.6968 11.7234C24.2091 11.386 23.7072 11.0736 23.2115 10.7531C23.0542 10.6544 22.899 10.5496 22.7438 10.4507C22.6935 10.4196 22.647 10.3863 22.5967 10.356C22.0768 10.0316 21.5466 9.72117 21.0187 9.41491C20.8111 9.29397 20.6035 9.1751 20.3938 9.05705C19.6884 8.66019 18.977 8.28231 18.2576 7.91847C17.5118 7.54162 16.7622 7.17985 16.0023 6.83912C15.2728 6.51077 14.5412 6.1913 13.7995 5.89392C13.5456 6.65069 13.3077 7.41264 13.086 8.1785C13.8337 8.48064 14.5695 8.80733 15.299 9.14187C16.0649 9.49044 16.8146 9.86233 17.5642 10.2462C17.9049 10.4237 18.2496 10.5929 18.5901 10.7782C18.7292 10.8529 18.8621 10.9375 19.0053 11.0162C19.2431 11.1491 19.4769 11.2882 19.7167 11.4242C20.2205 11.7144 20.7224 12.0047 21.2181 12.3131C21.456 12.4602 21.6899 12.6193 21.9255 12.7706C21.9821 12.8067 22.0345 12.841 22.0888 12.8773C22.5302 13.1625 22.9717 13.4436 23.4048 13.7399C23.6246 13.892 23.832 14.0573 24.0539 14.2115C24.5073 14.538 24.9669 14.8606 25.4102 15.2011C25.4403 15.2221 25.4686 15.2424 25.4969 15.2616C26.1016 15.7271 26.6941 16.2138 27.2804 16.7056C27.2905 16.758 27.2967 16.8114 27.3027 16.8639C27.351 17.1338 27.3914 17.405 27.4356 17.676C27.5344 18.3178 27.6271 18.9588 27.7016 19.6047C27.7239 19.7952 27.74 19.9886 27.7621 20.1801C27.7701 20.2759 27.7823 20.3706 27.7903 20.4664C27.6775 20.3626 27.5666 20.2637 27.4558 20.162C27.3852 20.0955 27.3128 20.033 27.2401 19.9676C26.6417 19.4223 26.0269 18.8892 25.4042 18.3733C25.1079 18.1294 24.8117 17.8856 24.5073 17.6487C24.1829 17.3897 23.8502 17.1369 23.5157 16.886C23.4775 16.8597 23.4432 16.8356 23.409 16.8094C22.7539 16.3217 22.0888 15.8471 21.4137 15.3945C21.4096 15.3926 21.4096 15.3895 21.4057 15.3885C21.3875 15.3755 21.3673 15.3643 21.3491 15.3522C20.6538 14.8868 19.9484 14.4352 19.227 14.0039C19.1927 13.9818 19.1564 13.9626 19.1182 13.9405C18.7232 13.7047 18.3241 13.4779 17.921 13.2541C17.6267 13.088 17.3324 12.9157 17.0301 12.7564C17.002 12.7392 16.9737 12.7273 16.9455 12.712C16.1918 12.3131 15.4319 11.929 14.6621 11.5682C14.5432 11.515 14.4202 11.4665 14.3034 11.4102C13.8257 11.1924 13.3461 10.9809 12.8623 10.7803C12.7172 10.7167 12.5742 10.6482 12.431 10.5888C12.3243 11.0141 12.2335 11.4465 12.1369 11.8727C11.7095 11.9705 11.2802 12.0662 10.853 12.1719C10.6615 12.2212 10.4661 12.2778 10.2746 12.3281C9.66182 12.4883 9.04929 12.6466 8.43656 12.8249C7.6707 13.0527 6.91082 13.3037 6.15114 13.5606C5.36506 13.8256 4.59115 14.1088 3.81517 14.4059C3.07159 14.6922 2.32988 14.9854 1.59621 15.2998C1.89256 16.0404 2.20296 16.7751 2.52944 17.5047C3.26105 17.1862 4.00668 16.895 4.7484 16.6109C5.52232 16.3137 6.30015 16.0345 7.0883 15.7705C7.8521 15.5146 8.61796 15.2696 9.39394 15.0459C10.1336 14.8323 10.8751 14.6268 11.6228 14.4423C11.6913 14.4251 11.7598 14.403 11.8304 14.3859C12.556 14.2105 13.2916 14.0644 14.0211 13.9183C14.0554 13.9354 14.0917 13.9546 14.128 13.9728C14.2007 14.007 14.2731 14.0442 14.3457 14.0795C14.6299 14.2196 14.912 14.3657 15.1962 14.5097C15.6133 14.7233 16.0306 14.9382 16.4396 15.1627C16.7601 15.3392 17.0744 15.5245 17.389 15.7069C17.4534 15.7453 17.518 15.7814 17.5823 15.8188C17.4595 15.8349 17.3386 15.8582 17.2156 15.8772C16.9093 15.9226 16.6029 15.9701 16.2946 16.0223C16.0083 16.0708 15.7161 16.1061 15.43 16.1585C14.8474 16.2662 14.2731 16.3983 13.6928 16.5231C13.5132 16.5636 13.33 16.5979 13.1506 16.6391C13.092 16.6532 13.0357 16.6633 12.9812 16.6763C12.3848 16.8143 11.7902 16.9695 11.1977 17.1268C10.9678 17.1883 10.7341 17.2498 10.5003 17.3152C9.72229 17.5329 8.95044 17.7697 8.18664 18.0217C7.39457 18.2817 6.60662 18.5568 5.82859 18.8519C5.08088 19.1342 4.33731 19.4254 3.60158 19.7418C3.95841 20.4563 4.32926 21.1627 4.71415 21.8629C5.45773 21.5486 6.20543 21.2585 6.96118 20.9792C7.74727 20.6849 8.5414 20.415 9.34338 20.1599C9.70826 20.0431 10.075 19.918 10.4438 19.8083C10.5951 19.7649 10.7503 19.7278 10.9054 19.6852C11.1673 19.6097 11.4315 19.5412 11.6975 19.4706C12.2576 19.3196 12.82 19.1685 13.3863 19.0354C13.6604 18.9718 13.9365 18.9196 14.2126 18.8599C14.2752 18.8449 14.3416 18.8319 14.4041 18.8187C14.916 18.7089 15.43 18.5939 15.9439 18.4992C16.2058 18.4519 16.47 18.4187 16.736 18.3733C17.2881 18.2817 17.8403 18.187 18.3986 18.1114C18.4328 18.1073 18.4632 18.0992 18.4974 18.0951C19.2571 17.9954 20.019 17.9228 20.7789 17.8543C20.8231 17.8867 20.8654 17.9209 20.9118 17.9511C21.1335 18.1083 21.3553 18.2726 21.577 18.4348C22.0989 18.8166 22.6169 19.2056 23.1287 19.6076C23.2779 19.7278 23.429 19.8516 23.5741 19.9736C23.6509 20.033 23.7254 20.0935 23.7978 20.1539C23.6488 20.1589 23.4975 20.169 23.3465 20.176C23.2538 20.1801 23.1591 20.1851 23.0602 20.1903C22.252 20.2295 21.4399 20.285 20.6336 20.3626C20.2529 20.3987 19.8698 20.436 19.4909 20.4804C19.0738 20.5297 18.6607 20.5853 18.2454 20.6457C18.2031 20.6507 18.1588 20.6598 18.1165 20.6649C17.3083 20.7848 16.5043 20.9198 15.7041 21.076C15.7021 21.076 15.7 21.0781 15.694 21.0789C15.6717 21.082 15.6517 21.0861 15.6315 21.0921C14.8093 21.2533 13.9869 21.4337 13.1768 21.6372C13.1345 21.6473 13.0941 21.6615 13.0538 21.6714C12.6064 21.7833 12.167 21.9063 11.7256 22.0303C11.3952 22.124 11.0666 22.2086 10.7401 22.3075C10.708 22.3194 10.6797 22.3306 10.6454 22.3386C9.83312 22.5896 9.02309 22.8556 8.22297 23.1458C8.1041 23.1901 7.9811 23.2426 7.86016 23.2869C7.36836 23.4692 6.87863 23.6617 6.39302 23.8582C6.2498 23.9186 6.09667 23.97 5.95365 24.0305C6.18128 24.4063 6.42109 24.7743 6.65698 25.146C6.42316 25.5179 6.18541 25.8887 5.95964 26.2645C5.85686 26.435 5.7642 26.6112 5.66328 26.7815C5.34298 27.3307 5.01835 27.8769 4.71209 28.4331C4.33112 29.1375 3.97038 29.854 3.61768 30.5714C3.25095 31.3131 2.89825 32.0649 2.56371 32.8197C2.23722 33.5492 0.292225 38.0068 0 38.7485C0.731607 39.061 1.36212 39.2496 2.10589 39.5307C2.40225 38.7892 4.45825 34.4492 4.78061 33.7195C5.11721 32.9627 5.47383 32.215 5.84077 31.4743C6.19945 30.752 6.56825 30.0354 6.95933 29.329C7.33018 28.6558 7.70888 27.9867 8.11008 27.3278C8.1464 27.2663 8.1786 27.2017 8.21678 27.1412C8.60373 26.5035 9.02103 25.8807 9.43626 25.257C9.47051 25.2438 9.50869 25.2337 9.54708 25.2186C9.62365 25.1945 9.69815 25.1722 9.77472 25.146C10.075 25.0422 10.3773 24.9445 10.6817 24.8467C11.1292 24.7016 11.5725 24.5586 12.024 24.4286C12.3726 24.3258 12.7273 24.2361 13.08 24.1424C13.1525 24.1232 13.2231 24.1031 13.2957 24.0829C13.221 24.1836 13.1525 24.2856 13.0759 24.3863C12.8945 24.6362 12.7092 24.8872 12.5298 25.14C12.3606 25.3777 12.1811 25.6087 12.0139 25.8485C11.6773 26.3361 11.363 26.838 11.0446 27.3348C10.9478 27.49 10.8429 27.6442 10.7422 27.8004C10.7119 27.8497 10.6776 27.898 10.6475 27.9475C10.3229 28.4664 10.0127 28.9945 9.70414 29.5255C9.58733 29.7331 9.46433 29.9417 9.34752 30.1512C8.95045 30.8547 8.57155 31.5672 8.2108 32.2907C7.83189 33.0312 7.47115 33.7799 7.12856 34.5398C6.80001 35.2683 6.47951 36.003 6.18336 36.7456C6.94324 36.9996 7.70497 37.2355 8.47083 37.46C8.77504 36.7105 9.09966 35.9758 9.43214 35.2452C9.78091 34.4804 10.1536 33.7275 10.5385 32.9819C10.7181 32.6403 10.8852 32.2936 11.0708 31.956C11.1473 31.815 11.2278 31.6809 11.3085 31.542C11.4414 31.3022 11.5805 31.0663 11.7175 30.8294C12.0059 30.3246 12.296 29.8229 12.6044 29.328C12.7515 29.0892 12.9108 28.8564 13.0619 28.6205C13.0982 28.5652 13.1345 28.5107 13.1688 28.4554C13.4548 28.015 13.7351 27.5705 14.0354 27.1404C14.1844 26.9216 14.3476 26.7109 14.5028 26.4924C14.8314 26.0348 15.1539 25.5773 15.4924 25.1319C15.5147 25.1036 15.5347 25.0756 15.5549 25.0473C16.0184 24.4416 16.5042 23.8512 16.9979 23.2636C17.0503 23.2545 17.1027 23.2485 17.1551 23.2405C17.4272 23.1932 17.6994 23.1538 17.9693 23.1125C18.6082 23.0108 19.2532 22.9181 19.896 22.8424C20.0896 22.8203 20.2791 22.8042 20.4725 22.784C20.5672 22.7728 20.6619 22.7638 20.7587 22.7538C20.6559 22.8657 20.5571 22.9784 20.4543 23.0894C20.3899 23.1598 20.3274 23.2324 20.2609 23.304C19.7146 23.9036 19.1805 24.5163 18.6667 25.141C18.4229 25.4374 18.1769 25.7314 17.9392 26.0338C17.6833 26.3623 17.4292 26.6948 17.1772 27.0293C17.1552 27.0636 17.1248 27.0999 17.1027 27.1342C16.6109 27.7913 16.1394 28.4554 15.686 29.1305C15.6839 29.1325 15.6818 29.1365 15.6779 29.1395C15.6678 29.1577 15.6538 29.1769 15.6437 29.1951C15.1781 29.8922 14.7247 30.5968 14.2954 31.3152C14.2731 31.3525 14.2529 31.3897 14.2308 31.425C13.997 31.821 13.7712 32.2201 13.5456 32.6191C13.3803 32.9204 13.2049 33.2167 13.0437 33.518C13.0297 33.5463 13.0175 33.5715 13.0035 33.5995C12.6044 34.3534 12.2215 35.1131 11.8587 35.8841C11.8063 36.0009 11.7559 36.1229 11.7015 36.2397C11.4837 36.7185 11.2743 37.1992 11.0687 37.6837C11.0082 37.829 10.9397 37.971 10.8792 38.1151C11.3064 38.2189 11.7357 38.3105 12.167 38.4063C12.2618 38.8386 12.3606 39.2699 12.4653 39.6982C12.5137 39.8866 12.568 40.076 12.6186 40.2645C12.7798 40.8813 12.9389 41.498 13.1182 42.1076C13.344 42.8745 13.5981 43.6342 13.8519 44.391C14.1179 45.176 14.3982 45.9541 14.6985 46.729C14.9826 47.4705 15.2749 48.2112 15.5912 48.9438C16.3288 48.6446 17.0644 48.3332 17.792 48.0057C17.4775 47.2771 17.1894 46.5385 16.9011 45.7968C16.605 45.0177 16.3228 44.2339 16.0587 43.4447C15.8069 42.683 15.5609 41.9231 15.3372 41.1533C15.1236 40.4127 14.918 39.6709 14.7346 38.9222C14.7166 38.8547 14.6964 38.7862 14.6782 38.7177C14.5028 37.9892 14.3598 37.2545 14.2106 36.519C14.2248 36.4837 14.2448 36.4494 14.2611 36.4162C14.2954 36.3446 14.3336 36.274 14.3678 36.2044C14.5069 35.9194 14.6541 35.6363 14.7971 35.3529C15.0148 34.9348 15.2263 34.5146 15.4521 34.1025C15.6315 33.784 15.8149 33.4706 15.9982 33.1542C16.0345 33.0908 16.0729 33.0231 16.1092 32.9587C16.1272 33.0826 16.1515 33.2056 16.1676 33.3296C16.2159 33.6348 16.2624 33.9432 16.3127 34.2496C16.3631 34.5377 16.3973 34.8279 16.4497 35.1162C16.5585 35.6986 16.6896 36.274 16.8146 36.8514C16.8569 37.0349 16.8912 37.2202 16.9335 37.4047C16.9475 37.4582 16.9576 37.5135 16.9717 37.5669C17.1048 38.1636 17.26 38.7561 17.4191 39.3455C17.4816 39.5783 17.5421 39.8121 17.6046 40.0439C17.8263 40.8209 18.062 41.5896 18.3119 42.3565C18.5719 43.1496 18.8481 43.9365 19.1444 44.7156C19.4286 45.4662 19.7208 46.211 20.0372 46.9507C20.7506 46.5938 21.462 46.231 22.1614 45.8472C21.849 45.1005 21.5547 44.3468 21.2726 43.5838C20.9803 42.799 20.7104 42.0069 20.4543 41.2078C20.3375 40.845 20.2145 40.4861 20.1078 40.1204C20.0593 39.9632 20.0211 39.8009 19.9767 39.6387C19.9041 39.3777 19.8335 39.1116 19.7631 38.8467C19.6098 38.2874 19.4608 37.7242 19.3297 37.1579C19.2612 36.8828 19.2109 36.6056 19.1525 36.3295C19.1382 36.267 19.1242 36.2044 19.112 36.1411C19.0012 35.6272 18.8844 35.1162 18.7917 34.6013C18.7432 34.3392 18.711 34.0721 18.6666 33.8113C18.5719 33.2559 18.4813 32.7047 18.4047 32.1475C18.4006 32.1192 18.3946 32.088 18.3905 32.0598C18.2898 31.297 18.2171 30.5301 18.1486 29.7624C18.179 29.719 18.2112 29.6767 18.2434 29.6353C18.3986 29.4097 18.5659 29.1909 18.7271 28.9693C19.1081 28.4453 19.4971 27.9262 19.8981 27.4163C20.019 27.2673 20.142 27.1201 20.2609 26.9709C20.3253 26.8954 20.3858 26.8188 20.4462 26.7433C20.4524 26.8975 20.4623 27.0516 20.4685 27.2079C20.4724 27.3005 20.4784 27.3911 20.4825 27.4848C20.5209 28.295 20.5793 29.1053 20.6559 29.9114C20.6902 30.2944 20.7283 30.6744 20.7727 31.0551C20.8191 31.4724 20.8796 31.8846 20.938 32.2998C20.9461 32.3411 20.9502 32.3844 20.9582 32.4288C21.075 33.2307 21.21 34.0309 21.3634 34.8271C21.3634 34.8341 21.3673 34.8421 21.3693 34.8502C21.3753 34.8712 21.3795 34.8904 21.3834 34.9117C21.5466 35.736 21.726 36.5542 21.9297 37.3674C21.9398 37.4086 21.9517 37.4501 21.9639 37.4914C22.0747 37.9347 22.1977 38.3782 22.3247 38.8205C22.4153 39.149 22.504 39.4786 22.6008 39.804C22.6128 39.8383 22.6229 39.8726 22.635 39.9058C22.8829 40.717 23.151 41.5232 23.437 42.3202C23.4775 42.4351 23.5278 42.547 23.5722 42.6589C23.7555 43.1597 23.9511 43.6575 24.1525 44.1532C24.213 44.3004 24.2633 44.4496 24.3238 44.5936C24.7007 44.3668 25.0697 44.1291 25.4424 43.8922C25.8112 44.127 26.1841 44.3577 26.5589 44.5815C26.7343 44.6894 26.9076 44.8031 27.087 44.9069C27.625 45.2254 28.1793 45.5217 28.7295 45.8241C29.437 46.2059 30.1463 46.5757 30.8639 46.9304C31.6054 47.2982 32.3552 47.654 33.1109 47.9896C33.8386 48.314 38.9895 49.7067 39.7312 50C40.0437 49.2653 40.2493 48.7431 40.5335 47.9944C39.7938 47.6991 34.7415 46.088 34.012 45.7615C33.2562 45.4249 32.5064 45.0722 31.7668 44.7045C31.0471 44.3427 30.3298 43.9749 29.6223 43.5859C28.9533 43.215 28.286 42.8392 27.6312 42.4411C27.5666 42.403 27.496 42.3687 27.4356 42.3293C26.7948 41.9384 26.1719 41.5232 25.5493 41.1079C25.535 41.0716 25.5231 41.0355 25.5109 40.9992C25.4867 40.9236 25.4626 40.8471 25.4364 40.7724C25.3357 40.469 25.2348 40.1648 25.1382 39.8625C24.995 39.42 24.8519 38.9788 24.7209 38.5324C24.6181 38.1776 24.5294 37.8218 24.4328 37.4662C24.4146 37.3905 24.3944 37.3201 24.3742 37.2454C24.471 37.3191 24.5677 37.3956 24.6645 37.4662C24.9184 37.6536 25.1704 37.841 25.4263 38.0234C25.664 38.1927 25.9059 38.351 26.1457 38.5163C26.6315 38.8527 27.1171 39.1882 27.6151 39.5087C27.7722 39.6094 27.9335 39.7023 28.0927 39.801C28.141 39.8332 28.1934 39.8635 28.2398 39.8936C28.7617 40.2193 29.2797 40.5437 29.8097 40.8531C30.0173 40.974 30.233 41.0828 30.4427 41.2006C31.146 41.5977 31.8553 41.9797 32.5789 42.3443C33.3206 42.7214 34.0724 43.0821 34.83 43.4247C35.5598 43.7523 36.2932 44.0707 37.035 44.3668C37.289 43.6072 37.5267 42.8421 37.7505 42.0734C37.0048 41.77 36.2691 41.4466 35.5375 41.1121C34.7737 40.7633 34.0219 40.3914 33.2741 40.0065C32.9316 39.8292 32.5869 39.658 32.2464 39.4745C32.1073 39.3979 31.9744 39.3143 31.8332 39.2378C31.5955 39.1036 31.3596 38.9656 31.1218 38.8285C30.6179 38.5383 30.1141 38.2492 29.6203 37.9407C29.3804 37.7937 29.1466 37.6344 28.913 37.4823C28.8565 37.446 28.802 37.4097 28.7477 37.3754C28.3104 37.0894 27.8648 36.8112 27.4376 36.5159C27.218 36.3617 27.0044 36.1974 26.7846 36.0404C26.3292 35.7157 25.8698 35.3934 25.4263 35.0508C25.398 35.0316 25.3679 35.0114 25.3396 34.9893C24.7349 34.5258 24.1424 34.0369 23.5579 33.5471C23.546 33.4939 23.5398 33.4404 23.5299 33.386C23.4855 33.116 23.4471 32.8459 23.4009 32.5757C23.302 31.936 23.2114 31.2939 23.1367 30.6482C23.1146 30.4577 23.0944 30.2641 23.0744 30.0726C23.0682 29.977 23.0562 29.8792 23.0482 29.7824C23.159 29.8842 23.2678 29.989 23.3786 30.0899C23.4492 30.1553 23.5198 30.2239 23.5883 30.2874C24.193 30.8345 24.8076 31.3655 25.4304 31.8825C25.7245 32.1233 26.0188 32.3683 26.317 32.604C26.6497 32.864 26.9863 33.116 27.3208 33.3668C27.359 33.393 27.3914 33.4202 27.4275 33.4464C28.0805 33.9341 28.7477 34.4048 29.4248 34.8583C29.4269 34.8593 29.4308 34.8624 29.4329 34.8642C29.451 34.8774 29.4692 34.8904 29.4874 34.9026C30.1847 35.3692 30.8901 35.8175 31.6116 36.2478C31.6459 36.269 31.6801 36.2922 31.7183 36.3163C32.1114 36.5512 32.5104 36.7749 32.9116 36.9996C33.2098 37.166 33.508 37.3331 33.8103 37.4943C33.8365 37.5085 33.8648 37.5257 33.8929 37.5407C34.6447 37.9407 35.4046 38.3217 36.1785 38.6824C36.2932 38.7348 36.4022 38.7932 36.5151 38.8446C36.9947 39.0673 37.4884 39.2669 37.9762 39.4745C38.1213 39.535 38.2644 39.5995 38.4074 39.6608C38.5122 39.2347 38.603 38.8054 38.6996 38.3792C39.1291 38.2814 39.5583 38.1877 39.9835 38.0798C40.175 38.0336 40.3624 37.976 40.5539 37.9256C41.1705 37.7645 41.7872 37.6072 42.3999 37.4258C43.1658 37.1992 43.9277 36.9472 44.6874 36.6913C45.4714 36.4263 46.2474 36.144 47.0213 35.8468C47.7649 35.5587 48.5087 35.2673 49.2403 34.952C48.9439 34.2133 48.6335 33.4778 48.3071 32.747ZM24.3319 27.7218C23.8502 27.7116 23.3685 27.6896 22.885 27.6652C22.8588 27.1736 22.8264 26.6847 22.8144 26.195C22.7983 25.4766 22.8103 24.759 22.8225 24.0396C22.8344 23.5579 22.8567 23.0773 22.8829 22.5945C23.3706 22.5683 23.8583 22.5341 24.3501 22.5229C25.0676 22.5058 25.787 22.5159 26.5046 22.5312C26.9863 22.5411 27.4698 22.5623 27.9515 22.5875C27.9777 23.0783 28.0101 23.567 28.0221 24.0577C28.0382 24.7753 28.0281 25.4927 28.0141 26.2131C28.0021 26.6948 27.9839 27.1765 27.9557 27.6603C27.4659 27.6854 26.9783 27.7187 26.4865 27.7308C25.771 27.7459 25.0495 27.7368 24.3319 27.7218Z" fill="#D5D8FF"/>
<path d="M66.4385 35.8446V12.7075H71.0665V35.8446H66.4385Z" fill="white"/>
<path d="M77.5459 35.8446V12.7075H81.0826L93.1798 27.482V12.7075H97.8071V35.8446H94.2372L82.1732 21.0701V35.8446H77.5459Z" fill="white"/>
<path d="M102.24 28.8044H107.33C107.628 29.6638 108.818 31.4816 112.751 31.4816C114.205 31.4816 117.643 31.3827 117.643 29.2341C117.643 28.7054 117.444 28.2425 117.048 27.9117C116.519 27.4495 115.263 26.8544 112.255 26.4246C109.909 26.0939 102.736 25.069 103.199 19.0204C103.496 15.0215 107.033 12.5421 112.421 12.5421C117.941 12.5753 121.345 15.3848 121.576 19.7145H116.784C116.553 17.4669 114.14 17.0704 112.289 17.0372C110.768 17.0372 108.256 17.3015 108.123 19.0869C108.091 19.682 107.826 21.1358 112.949 21.8299C119.626 22.7225 122.568 25.0033 122.469 29.2341C122.403 32.6054 119.362 36.01 112.751 36.01C108.19 36.01 102.604 34.0925 102.24 28.8044Z" fill="white"/>
<path d="M126.605 12.7075H136.421C139.759 12.7075 145.379 13.6991 145.379 20.3428C145.379 26.9865 139.759 27.9781 136.421 27.9781H131.232V35.8446H126.604L126.605 12.7075ZM131.232 17.0047V23.6809H136.289C139.958 23.6809 140.718 22.3592 140.718 20.3428C140.718 18.3596 139.958 17.0047 136.289 17.0047H131.232Z" fill="white"/>
<path d="M150.537 35.8446V12.7075H155.165V35.8446H150.537Z" fill="white"/>
<path d="M171.131 12.7075C174.503 12.7075 180.122 13.6991 180.122 20.3428C180.122 23.7141 178.502 26.1603 175.693 27.2509L181.775 35.8446H176.354L170.735 27.9781H165.975V35.8446H161.348V12.7075H171.131ZM165.975 17.0372V23.6809H171.032C174.701 23.6809 175.462 22.3592 175.462 20.3428C175.462 18.3596 174.701 17.0372 171.032 17.0372H165.975Z" fill="white"/>
<path d="M186.438 35.8446V12.7075H191.066V35.8446H186.438Z" fill="white"/>
<path d="M205.677 12.7075H208.85L219.659 35.8446H214.965L212.652 30.8208H201.876L199.562 35.8446H194.836L205.677 12.7075ZM203.727 26.7879H210.801L207.264 19.1201L203.727 26.7879Z" fill="white"/>
</g>
<defs>
<clipPath id="clip0_14_158">
<rect width="219.659" height="50" fill="white"/>
</clipPath>
</defs>
</svg>
